<?xml version="1.0" encoding="utf-8"?>
<!-- Generator: Adobe Illustrator 23.0.5, SVG Export Plug-In . SVG Version: 6.00 Build 0)  -->
<svg version="1.1" xmlns="http://www.w3.org/2000/svg" xmlns:xlink="http://www.w3.org/1999/xlink" x="0px" y="0px"
	 viewBox="0 0 3000 3000" style="enable-background:new 0 0 3000 3000;" xml:space="preserve">
<style type="text/css">
	.st0{display:none;}
	.st1{display:inline;}
	.st2{fill:#FFFFFF;}
	.st3{display:none;fill:#FFFFFF;}
</style>
<g id="Layer_2" class="st0">
	<rect x="3367.37" y="691.32" class="st1" width="1640" height="624"/>
</g>
<g id="Layer_6">
	<rect x="0" y="0" class="st2" width="3000" height="3000"/>
</g>
<g id="Layer_5" class="st0">
	<rect x="3756.5" y="1790.79" class="st1" width="1080" height="1080"/>
</g>
<g id="Layer_3">
	<rect x="0" y="0" class="st3" width="3000" height="3000"/>
	<g id="Layer_4">
	</g>
	<g>
		<polygon points="1632.17,1846.57 1959.06,2035.3 2193.11,1900.17 2193.11,1522.7 		"/>
		<polygon points="1429.44,1979.68 1428.07,1712.08 2193.11,1270.38 2193.11,1099.83 1500,699.66 1237.4,851.28 1945.01,1259.82 
			1726.48,1385.98 1018.87,977.44 806.89,1099.83 806.89,1900.17 1076.3,2055.72 1076.3,1164.41 1294.83,1290.58 1294.83,2181.88 
			1500,2300.34 1741.77,2160.75 		"/>
	</g>
</g>
</svg>
